<?xml version="1.0" encoding="UTF-8"?>
<svg xmlns="http://www.w3.org/2000/svg" viewBox="0 0 240 200" width="240" height="200">
  <!-- Soft glow behind calendar -->
  <ellipse cx="168" cy="110" rx="72" ry="70" fill="rgba(209,250,229,0.45)"/>

  <!-- ── Coffee mug ── -->
  <rect x="6" y="118" width="58" height="56" rx="10" fill="#155e45"/>
  <rect x="14" y="126" width="42" height="40" rx="6" fill="#1a7a58" opacity="0.6"/>
  <path d="M64 128 C86 128 86 166 64 166" stroke="#155e45" stroke-width="9" fill="none" stroke-linecap="round"/>
  <path d="M24 115 Q28 103 24 91" stroke="#a7c4bc" stroke-width="3" fill="none" stroke-linecap="round"/>
  <path d="M37 113 Q41 99 37 85" stroke="#a7c4bc" stroke-width="3" fill="none" stroke-linecap="round"/>
  <path d="M50 115 Q54 103 50 91" stroke="#a7c4bc" stroke-width="3" fill="none" stroke-linecap="round"/>

  <!-- ── Plant (terracotta pot + tropical leaves) ── -->

  <!-- Pot body: trapezoidal terracotta -->
  <path d="M82 126 L76 172 L132 172 L126 126 Z" fill="#d4714a"/>
  <!-- Pot shading right side -->
  <path d="M108 126 L104 172 L132 172 L126 126 Z" fill="rgba(0,0,0,0.09)"/>
  <!-- Pot highlight stripe -->
  <path d="M86 132 Q92 128 98 132 L96 144 Q90 140 86 144 Z" fill="rgba(255,255,255,0.18)"/>
  <!-- Pot rim -->
  <rect x="78" y="118" width="52" height="12" rx="6" fill="#b8522a"/>
  <!-- Rim highlight -->
  <rect x="82" y="119" width="44" height="5" rx="3" fill="rgba(255,255,255,0.18)"/>
  <!-- Soil -->
  <ellipse cx="104" cy="124" rx="20" ry="4" fill="#3a2010"/>

  <!-- Stem -->
  <line x1="104" y1="124" x2="104" y2="50" stroke="#1e5c35" stroke-width="4.5" stroke-linecap="round"/>

  <!-- Leaf 1: large lower-left -->
  <path d="M 104 116 C 84 116, 50 98, 48 76 C 46 58, 88 92, 104 116 Z" fill="#2d8a55"/>
  <line x1="104" y1="116" x2="56" y2="80" stroke="#1e6b42" stroke-width="1.3" stroke-linecap="round"/>
  <line x1="86" y1="100" x2="72" y2="96" stroke="#1e6b42" stroke-width="0.8" stroke-linecap="round" opacity="0.7"/>

  <!-- Leaf 2: large lower-right -->
  <path d="M 104 105 C 124 105, 154 86, 154 64 C 154 48, 116 82, 104 105 Z" fill="#256b40"/>
  <line x1="104" y1="105" x2="150" y2="68" stroke="#1b5033" stroke-width="1.3" stroke-linecap="round"/>
  <line x1="124" y1="95" x2="136" y2="88" stroke="#1b5033" stroke-width="0.8" stroke-linecap="round" opacity="0.7"/>

  <!-- Leaf 3: mid-left -->
  <path d="M 104 91 C 90 91, 62 76, 60 56 C 58 40, 94 74, 104 91 Z" fill="#2d8a55"/>
  <line x1="104" y1="91" x2="66" y2="60" stroke="#1e6b42" stroke-width="1.3" stroke-linecap="round"/>
  <line x1="88" y1="78" x2="76" y2="73" stroke="#1e6b42" stroke-width="0.8" stroke-linecap="round" opacity="0.7"/>

  <!-- Leaf 4: mid-right -->
  <path d="M 104 79 C 118 79, 142 63, 142 44 C 142 29, 114 61, 104 79 Z" fill="#3aaa6a"/>
  <line x1="104" y1="79" x2="138" y2="50" stroke="#2a8050" stroke-width="1.3" stroke-linecap="round"/>

  <!-- Leaf 5: upper-left -->
  <path d="M 104 65 C 96 65, 74 54, 72 38 C 70 24, 98 52, 104 65 Z" fill="#2d8a55"/>
  <line x1="104" y1="65" x2="78" y2="42" stroke="#1e6b42" stroke-width="1.2" stroke-linecap="round"/>

  <!-- Leaf 6: top — two-toned unfurling leaf -->
  <path d="M 104 56 C 110 56, 124 44, 122 28 C 120 16, 106 40, 104 56 Z" fill="#3aaa6a"/>
  <path d="M 104 56 C 98 56, 86 46, 88 30 C 90 18, 102 40, 104 56 Z" fill="#2d8a55"/>
  <line x1="104" y1="56" x2="104" y2="32" stroke="#25724a" stroke-width="1.2" stroke-linecap="round"/>

  <!-- ── Calendar / flipbook ── -->
  <rect x="135" y="60" width="90" height="120" rx="12" fill="rgba(0,0,0,0.08)" transform="translate(3,4)"/>
  <rect x="135" y="56" width="90" height="120" rx="12" fill="white" stroke="#e2e8f0" stroke-width="1.5"/>
  <rect x="135" y="56" width="90" height="30" rx="12" fill="#dcfce7"/>
  <rect x="135" y="76" width="90" height="10" fill="#dcfce7"/>
  <rect x="149" y="48" width="9" height="19" rx="4.5" fill="#2d6a4f"/>
  <rect x="168" y="48" width="9" height="19" rx="4.5" fill="#2d6a4f"/>
  <rect x="187" y="48" width="9" height="19" rx="4.5" fill="#2d6a4f"/>
  <rect x="206" y="48" width="9" height="19" rx="4.5" fill="#2d6a4f"/>
  <circle cx="153" cy="105" r="10" fill="#dcfce7"/>
  <text x="153" y="110" text-anchor="middle" font-family="Arial,sans-serif" font-size="14" fill="#166534" font-weight="900">✓</text>
  <circle cx="178" cy="105" r="10" fill="rgba(239,68,68,0.1)"/>
  <text x="178" y="110" text-anchor="middle" font-family="Arial,sans-serif" font-size="14" fill="#991b1b" font-weight="900">✗</text>
  <circle cx="203" cy="105" r="10" fill="rgba(239,68,68,0.1)"/>
  <text x="203" y="110" text-anchor="middle" font-family="Arial,sans-serif" font-size="14" fill="#991b1b" font-weight="900">✗</text>
  <circle cx="153" cy="131" r="10" fill="#dcfce7"/>
  <text x="153" y="136" text-anchor="middle" font-family="Arial,sans-serif" font-size="14" fill="#166534" font-weight="900">✓</text>
  <circle cx="178" cy="131" r="10" fill="#dcfce7"/>
  <text x="178" y="136" text-anchor="middle" font-family="Arial,sans-serif" font-size="14" fill="#166534" font-weight="900">✓</text>
  <circle cx="203" cy="131" r="10" fill="rgba(239,68,68,0.1)"/>
  <text x="203" y="136" text-anchor="middle" font-family="Arial,sans-serif" font-size="14" fill="#991b1b" font-weight="900">✗</text>
  <circle cx="153" cy="157" r="10" fill="#dcfce7"/>
  <text x="153" y="162" text-anchor="middle" font-family="Arial,sans-serif" font-size="14" fill="#166534" font-weight="900">✓</text>
  <circle cx="178" cy="157" r="10" fill="#dcfce7"/>
  <text x="178" y="162" text-anchor="middle" font-family="Arial,sans-serif" font-size="14" fill="#166534" font-weight="900">✓</text>
  <circle cx="203" cy="157" r="10" fill="#dcfce7"/>
  <text x="203" y="162" text-anchor="middle" font-family="Arial,sans-serif" font-size="14" fill="#166534" font-weight="900">✓</text>
</svg>
